<?xml version="1.0" standalone="no"?>
<!DOCTYPE svg PUBLIC "-//W3C//DTD SVG 20010904//EN"
 "http://www.w3.org/TR/2001/REC-SVG-20010904/DTD/svg10.dtd">
<svg version="1.0" xmlns="http://www.w3.org/2000/svg"
 width="36px" height="36px" viewBox="0 0 256.000000 256.000000"
 preserveAspectRatio="xMidYMid meet">

<g transform="translate(0.000000,256.000000) scale(0.100000,-0.100000)"
fill="#000000" stroke="none">
<path d="M1760 2505 c-19 -23 -7 -49 28 -60 l33 -9 -3 -86 -3 -85 -94 -3 c-52
-1 -101 -8 -108 -14 -10 -8 -13 -51 -13 -168 l0 -157 45 -96 c25 -53 45 -104
45 -114 0 -9 -16 -52 -37 -95 l-36 -78 -72 69 c-118 112 -256 182 -425 217
-112 22 -313 15 -418 -15 -251 -73 -463 -245 -570 -463 -169 -346 -102 -768
164 -1034 110 -110 273 -203 429 -245 115 -31 327 -31 440 0 147 40 271 109
378 209 l57 55 0 -59 c0 -113 72 -201 185 -224 36 -7 144 -10 308 -8 l252 3
55 30 c33 18 66 47 85 73 l30 44 3 662 3 663 -41 87 c-22 49 -40 98 -40 111 0
12 18 61 40 108 l40 85 0 164 c0 114 -4 168 -12 176 -8 8 -50 12 -125 12
l-112 0 -3 88 -3 87 30 10 c33 11 43 38 25 60 -18 22 -542 22 -560 0z m430
-155 l0 -90 -150 0 -150 0 0 90 0 90 150 0 150 0 0 -90z m250 -275 l0 -105
-380 0 -380 0 0 105 0 105 380 0 380 0 0 -105z m-20 -190 c0 -2 -13 -32 -30
-67 -40 -85 -39 -121 10 -225 l40 -86 0 -653 0 -652 -31 -31 c-47 -48 -84 -53
-367 -49 -251 3 -258 4 -296 27 -68 43 -66 21 -66 715 l0 624 45 100 c25 55
45 112 45 128 0 16 -14 58 -30 92 -17 35 -30 67 -30 72 0 4 160 8 355 8 195 1
355 -1 355 -3z m-1594 -150 c-51 -78 -89 -154 -190 -381 -135 -304 -191 -404
-275 -495 -68 -75 -115 -105 -179 -115 l-40 -6 -11 51 c-18 84 -14 255 9 348
72 301 298 526 605 604 98 24 101 24 81 -6z m316 6 c155 -40 285 -117 396
-235 l62 -67 0 -98 0 -97 -55 -23 c-38 -16 -72 -41 -114 -86 -97 -104 -156
-225 -276 -560 -106 -298 -161 -403 -230 -441 -29 -15 -40 -16 -110 -5 -275
45 -520 232 -626 478 -20 48 -16 62 21 63 34 1 124 52 175 100 105 100 201
266 340 590 90 208 149 321 191 364 32 33 40 36 93 36 32 0 92 -9 133 -19z
m416 -1342 c-54 -64 -164 -148 -255 -193 -73 -36 -199 -76 -241 -76 l-23 0 21
30 c38 54 99 195 181 422 45 123 104 270 132 327 55 112 131 206 189 234 l33
16 3 -355 2 -355 -42 -50z"/>
<path d="M2033 1432 c-19 -12 -119 -228 -154 -332 -28 -86 -30 -96 -18 -142
23 -99 124 -169 219 -153 100 17 178 118 167 215 -10 85 -149 401 -182 414
-20 7 -17 7 -32 -2z m66 -225 c77 -176 85 -215 54 -268 -19 -31 -68 -59 -105
-59 -34 0 -85 35 -104 72 -21 41 -11 89 46 219 23 52 44 102 47 112 3 9 9 17
13 17 4 0 26 -42 49 -93z"/>
<path d="M1777 763 c-14 -13 -6 -53 12 -63 12 -6 116 -10 270 -10 214 0 252 2
265 16 9 8 16 21 16 28 0 33 -22 36 -290 36 -147 0 -270 -3 -273 -7z"/>
</g>
</svg>
